PathFileType	4	(X/Y/Z)	D:\Share\Shared_Data\Ergonomics\Sit To Stand Pertubation\S0\Free STS.trc
DataRate	CameraRate	NumFrames	NumMarkers	Units	OrigDataRate	OrigDataStartFrame	OrigNumFrames	
100	100	16	18	m	100	1719	191
Frame#	Time	R_Toe			R_ASIS			R_Pelvis			V_Sacral			L_Pelvis			L_ASIS			Clavical			R_Acromium			L_Acromium			Sternum			Torso			R_Thigh_Med			R_Thigh_Lat			R_Thigh			R_Shank_Med			R_Shank_Lat			R_Shank			R_Heel			
		X1	Y1	Z1	X2	Y2	Z2	X3	Y3	Z3	X4	Y4	Z4	X5	Y5	Z5	X6	Y6	Z6	X7	Y7	Z7	X8	Y8	Z8	X9	Y9	Z9	X10	Y10	Z10	X11	Y11	Z11	X12	Y12	Z12	X13	Y13	Z13	X14	Y14	Z14	X15	Y15	Z15	X16	Y16	Z16	X17	Y17	Z17	X18	Y18	Z18	

1719	3.61	0.37750882	0.049437298	0.14435669	0.024680428	0.73617957	0.15702544	-0.099669121	0.7559964	0.20297626	-0.22141475	0.75352185	-0.028475153	-0.079459084	0.74638696	-0.21144321	0.043298351	0.73037158	-0.16166806	0.23568559	1.0477435	-0.0048607726	0.18978735	1.1354518	0.13666566	0.1818307	1.1399061	-0.15046246	0.22432732	0.95064941	-0.021632174	0.22296542	1.0043199	-0.12677441	0.32182242	0.48503989	0.084935898	0.30196201	0.50248157	0.21828142	0.24192183	0.64180713	0.13635085	0.25477654	0.10109006	0.10491815	0.19588759	0.089140114	0.19232393	0.25835165	0.30624429	0.2217417	0.15443382	0.045506256	0.14482317
1720	3.62	0.37777563	0.049320484	0.14442899	0.028738323	0.73715283	0.15686772	-0.094962914	0.75890765	0.2029967	-0.21701242	0.75807086	-0.028453575	-0.075062286	0.74868188	-0.2114677	0.047382305	0.73063977	-0.16157198	0.24471759	1.0455039	-0.0047025805	0.19964333	1.1339618	0.1365715	0.19191345	1.1385388	-0.15002148	0.23253798	0.94858905	-0.021627224	0.23167059	1.0024249	-0.12662666	0.32279276	0.48492868	0.08476622	0.30290509	0.50225235	0.21817876	0.24360567	0.64208997	0.13659267	0.25507399	0.10087385	0.10480725	0.19611958	0.089073227	0.19220367	0.25901135	0.30605695	0.22159218	0.1545882	0.045440811	0.14474252
1721	3.63	0.37805032	0.049166187	0.14447737	0.032972305	0.73816986	0.15664563	-0.090053978	0.76197693	0.20295493	-0.21238693	0.76277118	-0.028463375	-0.070467087	0.75111798	-0.21151682	0.051609837	0.73100787	-0.1615166	0.25375339	1.0432671	-0.0045110106	0.20939624	1.1324656	0.13647667	0.20191475	1.1372125	-0.14954642	0.24066226	0.94657312	-0.021648785	0.24035349	1.0005762	-0.12642749	0.32386877	0.48480371	0.084527893	0.30394583	0.50203067	0.21800769	0.24540819	0.64233575	0.13677197	0.25535252	0.10064641	0.1046945	0.19636685	0.089016785	0.19209276	0.25975531	0.30586505	0.22141464	0.1547368	0.045382015	0.14467792
1722	3.64	0.37833124	0.048977478	0.14449533	0.037367901	0.73922729	0.15635806	-0.084953629	0.76517566	0.20285054	-0.20755927	0.7675791	-0.028499884	-0.06568605	0.75367365	-0.21158076	0.05597337	0.73147601	-0.16149812	0.26275989	1.041057	-0.0042815752	0.21899475	1.130972	0.1363856	0.21178574	1.1359423	-0.14903763	0.24866769	0.94462128	-0.021687645	0.24897884	0.99879388	-0.12616794	0.32505551	0.48464539	0.084202217	0.30511032	0.50181461	0.21774628	0.2473642	0.64254095	0.13683737	0.25562402	0.1004127	0.10457272	0.19662775	0.088971916	0.19198814	0.26059869	0.30566864	0.2211945	0.15487927	0.045332367	0.14463
1723	3.65	0.37861694	0.048758755	0.14447784	0.041902367	0.74032306	0.15600674	-0.079681297	0.76846576	0.20268654	-0.20255962	0.7724447	-0.028557947	-0.060738976	0.75632135	-0.2116459	0.060462242	0.73204315	-0.16150801	0.27169391	1.0389128	-0.0040140052	0.2283885	1.1295013	0.1363035	0.22148177	1.1347487	-0.14849725	0.25653482	0.94276166	-0.021729994	0.25750787	0.99710596	-0.12584156	0.32635535	0.48443372	0.083773521	0.30642722	0.50160229	0.2173756	0.24950693	0.64270398	0.13673749	0.25589767	0.10017689	0.10443382	0.1969003	0.088940254	0.19188441	0.26155154	0.30546973	0.22091743	0.15501607	0.04529417	0.14459653
1724	3.66	0.37890604	0.048515102	0.14442099	0.046547318	0.74145746	0.15559578	-0.074265839	0.77180475	0.20246933	-0.19742586	0.77731537	-0.028632126	-0.05565205	0.75903064	-0.21169746	0.065062805	0.73270929	-0.16153279	0.28050223	1.036885	-0.0037115226	0.23753166	1.1280858	0.13623434	0.2309641	1.1336565	-0.14792891	0.26424878	0.94102942	-0.021761839	0.2659003	0.99554523	-0.12544429	0.32776688	0.48414996	0.083231071	0.30792719	0.50139343	0.21688176	0.25186026	0.64282153	0.13642613	0.25617834	0.099941292	0.10426989	0.19718224	0.088923759	0.19177452	0.26261627	0.30527179	0.22057146	0.15514813	0.045268921	0.14457213
1725	3.67	0.37919708	0.048252037	0.14432208	0.051271564	0.74263324	0.15513217	-0.068745567	0.77515021	0.20220815	-0.19220128	0.78213763	-0.028717306	-0.050455944	0.76177081	-0.21172345	0.069758385	0.73347577	-0.16155565	0.28912567	1.0350254	-0.0033789153	0.24638525	1.1267675	0.13617963	0.24019969	1.1326921	-0.14733769	0.27179303	0.9394635	-0.02177318	0.27411761	0.99414673	-0.12497534	0.32928369	0.48377985	0.082571014	0.30963483	0.50118738	0.21625925	0.25443715	0.6428894	0.13586842	0.25646753	0.099706726	0.10407437	0.19747073	0.088924103	0.19165071	0.26378531	0.30507892	0.22014961	0.15527647	0.045257145	0.14454887
1726	3.68	0.37948788	0.04797533	0.14418115	0.056042183	0.7438559	0.15462712	-0.063166893	0.77846399	0.201914	-0.18693234	0.78685931	-0.028809666	-0.045183533	0.7645144	-0.2117173	0.074529121	0.73434564	-0.16155936	0.29750626	1.0333812	-0.0030209455	0.25491824	1.1255941	0.13613821	0.24916048	1.1318823	-0.14673085	0.27914868	0.93810364	-0.021760027	0.28212524	0.99294617	-0.12443748	0.33089395	0.48331686	0.081798508	0.31155869	0.50097983	0.21551422	0.25724088	0.64290582	0.13504727	0.25676382	0.099472595	0.10384361	0.19776207	0.088942093	0.19150577	0.26504034	0.30489478	0.21965283	0.15540175	0.045258389	0.14451837
1727	3.69	0.37977524	0.047690994	0.14400198	0.060825207	0.74513257	0.1540981	-0.057581665	0.78171552	0.20159851	-0.18166646	0.79143408	-0.028908506	-0.039867859	0.76723846	-0.21167886	0.079352364	0.73532281	-0.16152898	0.30559558	1.0319951	-0.0026417325	0.26310806	1.1246152	0.13610728	0.25782324	1.1312552	-0.14611859	0.28629749	0.93698755	-0.021723969	0.28989441	0.99197833	-0.12383687	0.33258246	0.48276477	0.080929016	0.31369016	0.50076282	0.21466608	0.26026517	0.64287488	0.13397006	0.2570636	0.099237389	0.10357832	0.19805237	0.088977173	0.19133473	0.2663544	0.30472177	0.21909167	0.15552402	0.045271397	0.14447333
1728	3.7	0.38005536	0.047405464	0.14379242	0.065587837	0.74647186	0.15356982	-0.052044044	0.78488379	0.20127296	-0.17644868	0.79582666	-0.029018246	-0.034540356	0.76992609	-0.21161426	0.084204132	0.73641156	-0.16145305	0.31336093	1.0309025	-0.0022445574	0.27094177	1.1238765	0.13608449	0.26616937	1.1308411	-0.14551398	0.29322455	0.93614813	-0.021670115	0.29740244	0.99127435	-0.12318366	0.33433386	0.48213773	0.079988045	0.31600891	0.50052704	0.21374594	0.2634946	0.6428067	0.13267288	0.25736221	0.098999672	0.10328374	0.19833855	0.08902713	0.19113708	0.26769623	0.3045611	0.21848473	0.15564285	0.045294781	0.14440955
1729	3.71	0.38032428	0.047125393	0.14356326	0.070302406	0.74788324	0.15307195	-0.046606361	0.78795966	0.20094824	-0.17131682	0.80001898	-0.029148119	-0.029229271	0.77256787	-0.21153436	0.08906044	0.73761652	-0.16132468	0.32078647	1.0301333	-0.0018320037	0.27841629	1.1234165	0.1360701	0.27418359	1.1306691	-0.14493178	0.29991968	0.93561096	-0.0216043	0.30463138	0.99085846	-0.12249384	0.33613757	0.48145813	0.079008553	0.31848663	0.50026358	0.21279301	0.26690588	0.64271674	0.13122014	0.257655	0.098759247	0.10296863	0.19861911	0.089088524	0.19091783	0.2690358	0.30441293	0.21785464	0.15575766	0.045328175	0.144328
1730	3.72	0.38057819	0.046856682	0.14332745	0.074949059	0.7493761	0.15263429	-0.041314526	0.79094556	0.20063536	-0.16629642	0.80401282	-0.029308571	-0.023958588	0.77516278	-0.21145221	0.093898933	0.73894299	-0.16114189	0.32786987	1.0297107	-0.0014075295	0.28553873	1.1232666	0.13606738	0.28185248	1.130765	-0.1443866	0.30637692	0.9353941	-0.021530602	0.31156714	0.99074725	-0.12179002	0.33798941	0.48075293	0.078026672	0.32108868	0.49996408	0.21184952	0.27047015	0.64262323	0.12969907	0.25793774	0.098517929	0.10264353	0.1988934	0.089157555	0.19068674	0.27034967	0.30427609	0.21722505	0.15586789	0.045372532	0.14423535
1731	3.73	0.38081436	0.046603672	0.14309851	0.079512909	0.75096051	0.15228239	-0.03620443	0.79385498	0.20034583	-0.16139769	0.80783032	-0.029506853	-0.018746983	0.77771869	-0.21137985	0.098700424	0.74039484	-0.16090747	0.33461597	1.029651	-0.00097881585	0.29232471	1.1234475	0.13608043	0.28916583	1.131147	-0.14389174	0.31259244	0.93550891	-0.021449942	0.31820035	0.99095105	-0.1210996	0.3398884	0.48004819	0.077078033	0.32377524	0.49962155	0.21095506	0.2741524	0.64254181	0.12821011	0.25820779	0.098279381	0.10231963	0.19916075	0.089231216	0.19045607	0.27162451	0.30414771	0.21661929	0.15597282	0.045428627	0.14414108
1732	3.74	0.3810314	0.046369114	0.1428886	0.083979706	0.75264874	0.15203552	-0.031299498	0.79670984	0.20009126	-0.15661505	0.81151025	-0.029744474	-0.013606797	0.78025275	-0.21132588	0.10345043	0.74197406	-0.16062817	0.34103229	1.0299639	-0.00056085211	0.29879446	1.1239706	0.1361114	0.29612033	1.1318276	-0.14345845	0.3185625	0.93596161	-0.021360111	0.32452856	0.99147559	-0.12045118	0.3418302	0.47936353	0.076194969	0.32650281	0.49923169	0.21014189	0.27790927	0.64247998	0.12685533	0.25846463	0.098048668	0.10200787	0.19941997	0.089307869	0.19023817	0.27285669	0.30402277	0.21605905	0.15607144	0.045495346	0.14405258
1733	3.75	0.38122882	0.046154617	0.1427067	0.08833728	0.75445392	0.15190674	-0.026609295	0.79953809	0.19988217	-0.15193047	0.81510291	-0.030016836	-0.008543499	0.78279095	-0.21129378	0.10813966	0.74368079	-0.16031296	0.34712732	1.0306517	-0.0001754832	0.30496841	1.1248376	0.13615819	0.30272223	1.132814	-0.14309482	0.32428458	0.93675543	-0.021257055	0.33055679	0.99232336	-0.1198706	0.34380499	0.478711	0.075404602	0.32922583	0.49879391	0.20943185	0.28169012	0.64243402	0.1257262	0.25870914	0.097831383	0.10171817	0.19966866	0.089386497	0.19004292	0.27404977	0.30389392	0.21556232	0.15616248	0.045569687	0.14397353
1734	3.76	0.38140704	0.045960823	0.14255771	0.092580109	0.75638647	0.15190164	-0.02212944	0.80236987	0.19972697	-0.14731943	0.81866302	-0.030314394	-0.0035563397	0.78536578	-0.21128145	0.11276345	0.74551465	-0.15997125	0.35291196	1.0317107	0.00015432203	0.31086499	1.1260433	0.13621468	0.30898663	1.1341088	-0.14280415	0.32976038	0.93789056	-0.021136635	0.33629697	0.99349408	-0.11937764	0.34579782	0.47809644	0.074727127	0.3318988	0.49831201	0.20883649	0.28544153	0.64239197	0.12489223	0.25894202	0.097632271	0.10145856	0.19990305	0.08946492	0.18987622	0.27520969	0.30375372	0.21514218	0.15624461	0.045647907	0.14390511
